<svg width="27" height="32" viewBox="0 0 27 32" fill="none" xmlns="http://www.w3.org/2000/svg">
<path d="M25.5 13.3333C25.5 22.6667 13.5 30.6667 13.5 30.6667C13.5 30.6667 1.5 22.6667 1.5 13.3333C1.5 10.1507 2.76428 7.0985 5.01472 4.84806C7.26516 2.59763 10.3174 1.33334 13.5 1.33334C16.6826 1.33334 19.7348 2.59763 21.9853 4.84806C24.2357 7.0985 25.5 10.1507 25.5 13.3333Z" stroke="#757471" stroke-width="3" stroke-linecap="round" stroke-linejoin="round"/>
<path d="M13.5 17.3333C15.7091 17.3333 17.5 15.5425 17.5 13.3333C17.5 11.1242 15.7091 9.33334 13.5 9.33334C11.2909 9.33334 9.5 11.1242 9.5 13.3333C9.5 15.5425 11.2909 17.3333 13.5 17.3333Z" stroke="#757471" stroke-width="3" stroke-linecap="round" stroke-linejoin="round"/>
</svg>
